#title "ぷよぷよ (C)SEGA/COMPILE     = Theme of PUYOPUYO =   By 斎藤 彰良"
#ex-pcm

@70 = {
/*  AR  DR  SR  RR  SL  OL  KS  ML DT1 DT2 AME
    31, 22, 19, 15,  8,  0,  0,  1,  7,  0,  0,
    31,  0, 17, 15,  0,  0,  0,  1,  7,  0,  0,
    31,  0, 19, 15,  0,  8,  0,  0,  3,  0,  0,
    31,  0, 17, 15,  0,  0,  0,  1,  3,  0,  0,
/* CON  FL  OP
     4,  7, 15
}

@71 = {
/*  AR  DR  SR  RR  SL  OL  KS  ML DT1 DT2 AME
    31, 12,  0, 15,  2,  0,  0, 12,  7,  0,  0,
    31, 22, 16, 15,  3,  0,  0,  3,  7,  0,  0,
    31, 25, 19, 15,  5, 13,  0,  7,  7,  2,  0,
    31,  0, 15, 15,  0,  0,  0,  2,  3,  0,  0,
/* CON  FL  OP
     4,  7, 15
}

@72 = {
/*  AR  DR  SR  RR  SL  OL  KS  ML DT1 DT2 AME
    31,  0,  0, 15,  0,  0,  0,  2,  7,  0,  0,
    31, 19, 15, 15,  4,  2,  0,  2,  0,  0,  0,
    31, 19,  7, 15,  1,  5,  0,  2,  7,  0,  0,
    31, 19,  7, 15,  1,  5,  0,  2,  3,  0,  0,
/* CON  FL  OP
     6,  7, 15
}

@73 = {
/*  AR  DR  SR  RR  SL  OL  KS  ML DT1 DT2 AME
    31, 12,  0, 15,  2,  0,  0, 12,  0,  0,  0,
    31,  0, 20, 15,  0, 12,  0,  3,  0,  0,  0,
    31,  0, 20, 15,  0, 12,  0,  2,  0,  0,  0,
    31,  0, 20, 15,  0, 12,  0,  2,  0,  0,  0,
/* CON  FL  OP
     5,  7, 15
}

@77 = {
/*  AR  DR  SR  RR  SL  OL  KS  ML DT1 DT2 AME
    25, 15, 10, 15,  3, 20,  0,  6,  7,  0,  0,
    25, 15,  6, 15,  2, 40,  0,  1,  7,  0,  0,
    25, 16, 10, 15,  4, 20,  0,  0,  0,  0,  0,
    25, 10,  6, 15,  2,  3,  0,  1,  3,  0,  0,
/* CON  FL  OP
     0,  7, 15
}

@82 = {
/*  AR  DR  SR  RR  SL  OL  KS  ML DT1 DT2 AME
    25, 10,  5,  5,  2, 28,  0,  2,  7,  0,  0,
    25, 10,  6,  8,  1,  4,  0,  8,  7,  0,  0,
    25, 10,  5,  5,  1, 25,  0,  2,  3,  0,  0,
    25, 10,  6,  8,  1,  5,  0,  8,  3,  0,  0,
/* CON  FL  OP
     4,  4, 15
}

@83 = {
/*  AR  DR  SR  RR  SL  OL  KS  ML DT1 DT2 AME
    25,  0,  3, 15,  0, 22,  1,  4,  0,  0,  0,
    25, 10,  3, 15,  1,  4,  1,  2,  0,  0,  0,
    25, 10,  3, 15,  1,  4,  1,  8,  0,  0,  0,
    25, 10,  3, 15,  1,  5,  1,  4,  0,  0,  0,
/* CON  FL  OP
     5,  7, 15
}

@84 = {
/*  AR  DR  SR  RR  SL  OL  KS  ML DT1 DT2 AME
    17, 10,  0, 15,  1, 25,  0,  1,  7,  0,  0,
    15, 11,  6, 15,  6,  6,  0,  2,  7,  0,  0,
    20, 13,  3, 15,  5, 24,  0,  8,  3,  0,  0,
    20, 13,  5, 15,  9, 24,  0,  2,  3,  0,  0,
/* CON  FL  OP
     6,  7, 15
}

@85 = {
/*  AR  DR  SR  RR  SL  OL  KS  ML DT1 DT2 AME
    17, 10,  0, 15,  1, 26,  0,  7,  7,  0,  0,
    15, 15,  6, 15,  6,  4,  0,  4,  7,  0,  0,
    20,  3,  0, 15,  2, 20,  0,  3,  3,  0,  0,
    20, 15,  5, 15,  9,  4,  0,  5,  3,  0,  0,
/* CON  FL  OP
     4,  7, 15
}

@86 = {
/*  AR  DR  SR  RR  SL  OL  KS  ML DT1 DT2 AME
    17,  6,  0,  5,  1, 28,  0,  2,  7,  0,  0,
    15, 13,  6,  6,  6,  4,  0,  2,  7,  0,  0,
    20, 12,  0,  5,  3, 24,  0,  8,  3,  0,  0,
    20, 11,  5,  6,  6,  4,  0,  2,  3,  0,  0,
/* CON  FL  OP
     4,  7, 15
}

E l8 MP2,5,15 MD68 MPON L @84 q8 p3 D2 @v127 [r1]4 [@84 @v127 [r
E o5 c+4c+16_<a&a16a16_b&b8.b16_a&a16a16_b&
E b16b16_>d&d16dd16_c+&c+16c+16_<b&b16
E b16_a&a16a16_b&b%60r>c+4c+16_<a&a16a16_b&b8.
E b16_a&a16a16_b&b16b16_f+&f+16f+f+16_e&
E e16e16_d&d%108]2 @85 v13 <ee16_>e&e8.<ee
E e16_>e&e16 [e16_<e&e16e16_>e&/e16]3 e8.e
E e16_<e&e8.ee16_>e&e8.<eee16_>e&e16
E e16_<e&e16e16_>e&e16e16_<e&e16/o5 e D-22 e D2 
E d+ D-22 d+ D2 d D-22 d D2 c+]2 [d16_e&e8.]3 
E d16_e&e16 @83 v12 MP2,4,30 MD42 MPON r [D42 o3 c+32& D2 d16.
E ]7 e4dc32_c+&c+8..<b4.r [D42 >c+32& D2 d16.]5 
E d4<g+4b>e4 D50 c+16& D2 d%60r [D42 c+32& D2 d16.
E ]7 e4dc32_c+&c+8..<bab [D43 >c16& D2 c+%180
E <b4.>c+4.<a4]2 
